<?xml version="1.0" encoding="UTF-8" standalone="no"?>
<!-- Created with Inkscape (http://www.inkscape.org/) -->

<svg
   xmlns:dc="http://purl.org/dc/elements/1.1/"
   xmlns:cc="http://creativecommons.org/ns#"
   xmlns:rdf="http://www.w3.org/1999/02/22-rdf-syntax-ns#"
   xmlns:svg="http://www.w3.org/2000/svg"
   xmlns="http://www.w3.org/2000/svg"
   xmlns:xlink="http://www.w3.org/1999/xlink"
   xmlns:sodipodi="http://sodipodi.sourceforge.net/DTD/sodipodi-0.dtd"
   xmlns:inkscape="http://www.inkscape.org/namespaces/inkscape"
   width="1024"
   height="1024"
   viewBox="0 0 270.93333 270.93334"
   version="1.1"
   id="svg8"
   inkscape:version="0.92.3 (2405546, 2018-03-11)"
   sodipodi:docname="fluid-settings.svg"
   inkscape:export-filename="/home/snapwebsites/snapcpp/contrib/fluid-settings/doc/fluid-settings.png"
   inkscape:export-xdpi="96"
   inkscape:export-ydpi="96">
  <defs
     id="defs2">
    <linearGradient
       inkscape:collect="always"
       id="linearGradient1065">
      <stop
         style="stop-color:#b7f7d5;stop-opacity:1;"
         offset="0"
         id="stop1061" />
      <stop
         style="stop-color:#b7f7d5;stop-opacity:0;"
         offset="1"
         id="stop1063" />
    </linearGradient>
    <filter
       inkscape:collect="always"
       style="color-interpolation-filters:sRGB"
       id="filter915"
       x="-0.098011754"
       width="1.1960235"
       y="-0.13622119"
       height="1.2724424">
      <feGaussianBlur
         inkscape:collect="always"
         stdDeviation="4.8592153"
         id="feGaussianBlur917" />
    </filter>
    <filter
       inkscape:collect="always"
       style="color-interpolation-filters:sRGB"
       id="filter933"
       x="-0.098681864"
       width="1.1973637"
       y="-0.098119741"
       height="1.1962395">
      <feGaussianBlur
         inkscape:collect="always"
         stdDeviation="11.97466"
         id="feGaussianBlur935" />
    </filter>
    <filter
       inkscape:collect="always"
       style="color-interpolation-filters:sRGB"
       id="filter974"
       x="-0.061909023"
       width="1.123818"
       y="-0.060507034"
       height="1.1210141">
      <feGaussianBlur
         inkscape:collect="always"
         stdDeviation="7.9950467"
         id="feGaussianBlur976" />
    </filter>
    <filter
       inkscape:collect="always"
       style="color-interpolation-filters:sRGB"
       id="filter1000"
       x="-0.25929372"
       width="1.5185874"
       y="-0.32690432"
       height="1.6538086">
      <feGaussianBlur
         inkscape:collect="always"
         stdDeviation="16.477402"
         id="feGaussianBlur1002" />
    </filter>
    <filter
       inkscape:collect="always"
       style="color-interpolation-filters:sRGB"
       id="filter1032"
       x="-0.27808036"
       width="1.5561607"
       y="-0.20558559"
       height="1.4111712">
      <feGaussianBlur
         inkscape:collect="always"
         stdDeviation="11.396947"
         id="feGaussianBlur1034" />
    </filter>
    <filter
       inkscape:collect="always"
       style="color-interpolation-filters:sRGB"
       id="filter1054"
       x="-0.29897184"
       width="1.5979437"
       y="-0.2501659"
       height="1.5003318">
      <feGaussianBlur
         inkscape:collect="always"
         stdDeviation="7.0720577"
         id="feGaussianBlur1056" />
    </filter>
    <radialGradient
       inkscape:collect="always"
       xlink:href="#linearGradient1065"
       id="radialGradient1067"
       cx="135.46667"
       cy="135.46667"
       fx="135.46667"
       fy="135.46667"
       r="135.46667"
       gradientUnits="userSpaceOnUse" />
  </defs>
  <sodipodi:namedview
     id="base"
     pagecolor="#ffffff"
     bordercolor="#666666"
     borderopacity="1.0"
     inkscape:pageopacity="0.0"
     inkscape:pageshadow="2"
     inkscape:zoom="1.4"
     inkscape:cx="243.15925"
     inkscape:cy="523.52941"
     inkscape:document-units="px"
     inkscape:current-layer="layer5"
     showgrid="false"
     units="px"
     inkscape:window-width="3840"
     inkscape:window-height="2160"
     inkscape:window-x="0"
     inkscape:window-y="0"
     inkscape:window-maximized="0" />
  <metadata
     id="metadata5">
    <rdf:RDF>
      <cc:Work
         rdf:about="">
        <dc:format>image/svg+xml</dc:format>
        <dc:type
           rdf:resource="http://purl.org/dc/dcmitype/StillImage" />
        <dc:title></dc:title>
      </cc:Work>
    </rdf:RDF>
  </metadata>
  <g
     inkscape:groupmode="layer"
     id="layer5"
     inkscape:label="White Background"
     style="display:inline"
     sodipodi:insensitive="true">
    <rect
       style="opacity:1;fill:#ffffff;fill-opacity:1;stroke:none;stroke-width:0.78333217;stroke-miterlimit:4;stroke-dasharray:none;stroke-opacity:1"
       id="rect1059"
       width="270.93335"
       height="270.93335"
       x="0"
       y="-6.4941412e-07" />
  </g>
  <g
     sodipodi:insensitive="true"
     style="display:inline"
     inkscape:label="Green Circle"
     id="g1071"
     inkscape:groupmode="layer">
    <rect
       y="-6.4941412e-07"
       x="0"
       height="270.93335"
       width="270.93335"
       id="rect1069"
       style="opacity:1;fill:url(#radialGradient1067);fill-opacity:1;stroke:none;stroke-width:0.78333217;stroke-miterlimit:4;stroke-dasharray:none;stroke-opacity:1" />
  </g>
  <g
     inkscape:groupmode="layer"
     id="layer2"
     inkscape:label="Background"
     style="display:inline"
     sodipodi:insensitive="true">
    <path
       style="fill:#ffcffd;fill-opacity:1;stroke:none;stroke-width:0.26458332px;stroke-linecap:butt;stroke-linejoin:miter;stroke-opacity:1;filter:url(#filter974)"
       d="M -18.142857,287.56427 C 37.41475,246.50433 71.472779,111.47782 143.25297,172.84851 215.03317,234.2192 258.68356,84.885367 274.03274,-29.557738 L 122.2753,-29.179763 C 102.63847,24.554521 69.906963,72.082078 -35.907739,84.969047 Z"
       id="path964"
       inkscape:connector-curvature="0"
       sodipodi:nodetypes="czcccc" />
    <path
       style="fill:#66edff;fill-opacity:1;stroke:none;stroke-width:0.26458332px;stroke-linecap:butt;stroke-linejoin:miter;stroke-opacity:1;filter:url(#filter915)"
       d="m 151.94643,270.74435 c 5.66964,-20.59972 35.58751,-17.07988 66.5238,-17.00893 30.93629,0.0709 53.16865,-35.27778 52.3497,-68.41369 l 0.11342,85.61162 z"
       id="path877"
       inkscape:connector-curvature="0"
       sodipodi:nodetypes="czccc"
       transform="matrix(1.1159471,0,0,1.1608574,-26.594718,-39.152846)" />
    <path
       style="fill:#f5c500;fill-opacity:1;stroke:none;stroke-width:0.26458332px;stroke-linecap:butt;stroke-linejoin:miter;stroke-opacity:1;filter:url(#filter933)"
       d="M -6.8035714,275.09107 50.081842,190.6134 C 88.726748,124.15158 123.0892,151.3949 137.58333,159.05238 236.33694,214.64671 232.69939,49.20614 275.16666,-16.706548 l 9.26042,0.188988 -0.56696,178.40476 c 0.0718,25.12562 -18.12084,95.1608 -68.60268,94.87202 -22.67689,1.65291 -54.16044,-5.37791 -62.72233,19.43333 z"
       id="path919"
       inkscape:connector-curvature="0"
       sodipodi:nodetypes="ccccccccc"
       transform="matrix(1,0,0,1.0272462,0,0.45518982)" />
    <path
       style="fill:#e7ff7d;fill-opacity:1;stroke:none;stroke-width:0.26458332px;stroke-linecap:butt;stroke-linejoin:miter;stroke-opacity:1;filter:url(#filter1000)"
       d="M -25.702381,87.80387 C 40.254464,88.937797 126.8274,36.586859 126.81101,-33.148513 l -152.513391,0.377978 z"
       id="path978"
       inkscape:connector-curvature="0"
       sodipodi:nodetypes="cccc" />
    <path
       style="fill:#b7c0f7;fill-opacity:1;stroke:none;stroke-width:0.26499999;stroke-linecap:butt;stroke-linejoin:miter;stroke-miterlimit:4;stroke-dasharray:none;stroke-opacity:1;filter:url(#filter1032)"
       d="m 196.92559,-16.517559 87.50149,0.0051 C 259.40078,-0.45463345 247.40256,67.715443 230.56547,116.53006 209.83228,72.647378 165.6354,32.939057 196.92559,-16.517559 Z"
       id="path1026"
       inkscape:connector-curvature="0"
       sodipodi:nodetypes="cccc" />
    <path
       style="fill:#b7f7d5;fill-opacity:1;stroke:none;stroke-width:0.26458332px;stroke-linecap:butt;stroke-linejoin:miter;stroke-opacity:1;filter:url(#filter1054)"
       d="m -24.001488,103.48988 c 0.45067,32.77633 0.366591,42.98535 1.133929,67.84673 43.106456,-6.61899 100.52971,-7.97126 -1.133929,-67.84673 z"
       id="path1036"
       inkscape:connector-curvature="0"
       sodipodi:nodetypes="ccc" />
  </g>
  <g
     inkscape:groupmode="layer"
     id="layer3"
     inkscape:label="Fluid Settings and Curve"
     style="display:none"
     sodipodi:insensitive="true">
    <flowRoot
       xml:space="preserve"
       id="flowRoot828"
       style="font-style:normal;font-variant:normal;font-weight:normal;font-stretch:normal;font-size:40px;line-height:1.25;font-family:rsfs10;-inkscape-font-specification:rsfs10;letter-spacing:0px;word-spacing:0px;fill:#000000;fill-opacity:1;stroke:none"
       transform="scale(0.26458333)"><flowRegion
         id="flowRegion830"
         style="font-style:normal;font-variant:normal;font-weight:normal;font-stretch:normal;font-family:rsfs10;-inkscape-font-specification:rsfs10"><rect
           id="rect832"
           width="816.42859"
           height="267.85715"
           x="78.571426"
           y="432.57144"
           style="font-style:normal;font-variant:normal;font-weight:normal;font-stretch:normal;font-family:rsfs10;-inkscape-font-specification:rsfs10" /></flowRegion><flowPara
         id="flowPara834"
         style="font-style:normal;font-variant:normal;font-weight:normal;font-stretch:normal;font-size:192px;font-family:Karumbi;-inkscape-font-specification:Karumbi">Fluid Settings</flowPara></flowRoot>    <text
       xml:space="preserve"
       style="font-style:normal;font-variant:normal;font-weight:normal;font-stretch:normal;font-size:10.58333302px;line-height:1.25;font-family:'Tibetan Machine Uni';-inkscape-font-specification:'Tibetan Machine Uni';letter-spacing:0px;word-spacing:0px;fill:#000000;fill-opacity:1;stroke:none;stroke-width:0.26458332"
       x="50.270832"
       y="128.24733"
       id="text838"><tspan
         sodipodi:role="line"
         id="tspan836"
         x="50.270832"
         y="136.01947"
         style="stroke-width:0.26458332" /></text>
    <text
       xml:space="preserve"
       style="font-style:normal;font-variant:normal;font-weight:normal;font-stretch:normal;font-size:10.58333302px;line-height:1.25;font-family:'Tibetan Machine Uni';-inkscape-font-specification:'Tibetan Machine Uni';letter-spacing:0px;word-spacing:0px;fill:#000000;fill-opacity:1;stroke:none;stroke-width:0.26458332"
       x="30.616072"
       y="131.08214"
       id="text842"><tspan
         sodipodi:role="line"
         id="tspan840"
         x="30.616072"
         y="138.85428"
         style="stroke-width:0.26458332"></tspan></text>
    <path
       style="fill:none;stroke:#000000;stroke-width:0.26458332px;stroke-linecap:butt;stroke-linejoin:miter;stroke-opacity:1"
       d="M 7.9374999,236.91547 C 89.580356,185.6997 129.4701,213.07454 153.08036,199.49583 c 23.61025,-13.57871 79.77556,-49.3806 86.36755,-102.620533"
       id="path844"
       inkscape:connector-curvature="0"
       sodipodi:nodetypes="czc" />
  </g>
  <g
     inkscape:label="Fluid Settings"
     id="g864"
     inkscape:groupmode="layer"
     style="display:inline"
     sodipodi:insensitive="true">
    <text
       id="text856"
       y="128.24733"
       x="50.270832"
       style="font-style:normal;font-variant:normal;font-weight:normal;font-stretch:normal;font-size:10.58333302px;line-height:1.25;font-family:'Tibetan Machine Uni';-inkscape-font-specification:'Tibetan Machine Uni';letter-spacing:0px;word-spacing:0px;fill:#000000;fill-opacity:1;stroke:none;stroke-width:0.26458332"
       xml:space="preserve"><tspan
         style="stroke-width:0.26458332"
         y="136.01947"
         x="50.270832"
         id="tspan854"
         sodipodi:role="line" /></text>
    <text
       id="text860"
       y="131.08214"
       x="30.616072"
       style="font-style:normal;font-variant:normal;font-weight:normal;font-stretch:normal;font-size:10.58333302px;line-height:1.25;font-family:'Tibetan Machine Uni';-inkscape-font-specification:'Tibetan Machine Uni';letter-spacing:0px;word-spacing:0px;fill:#000000;fill-opacity:1;stroke:none;stroke-width:0.26458332"
       xml:space="preserve"><tspan
         style="stroke-width:0.26458332"
         y="138.85428"
         x="30.616072"
         id="tspan858"
         sodipodi:role="line"></tspan></text>
    <g
       aria-label="Fluid Settings"
       style="font-style:normal;font-variant:normal;font-weight:normal;font-stretch:normal;font-size:10.58333302px;line-height:1.25;font-family:rsfs10;-inkscape-font-specification:rsfs10;letter-spacing:0px;word-spacing:0px;fill:#000000;fill-opacity:1;stroke:none;stroke-width:0.26458332"
       id="text870"
       transform="translate(-8.4666671)">
      <path
         d="m 37.159522,189.18488 q 1.254234,-0.97715 2.293983,-0.31122 1.188285,0.76106 0.629164,2.28814 -3.514067,5.81376 -5.626236,13.36325 -0.231994,0.68927 -0.342155,1.35184 -0.06259,0.58831 -0.172754,1.25088 5.325547,6.23863 6.38529,9.32621 -0.166918,1.56882 -1.507093,1.86254 -1.218341,0.26701 -2.026096,-1.08819 -0.394686,-1.50958 -3.326153,-5.27228 l -0.142699,0.22281 q -1.355202,0.80775 -2.623592,-0.31881 -0.82862,-1.1591 -0.509813,-3.78269 -6.81674,-7.50789 -11.825223,-11.1346 -0.778571,0.23447 -1.446982,-0.19362 -0.66841,-0.4281 -0.706785,-1.18581 l -0.297072,-0.19026 q -0.99802,-1.05813 -0.40636,-2.14545 0.564958,-1.20915 2.038641,-0.8937 2.054541,-4.02549 3.669311,-8.01844 1.540503,-4.04052 3.817846,-7.92331 1.254234,-0.97715 2.293983,-0.31123 1.188286,0.76106 0.629164,2.28815 -2.229777,3.80852 -3.892114,7.87574 -1.61477,3.99296 -3.574178,7.86991 4.191537,3.10348 10.50343,9.76437 1.517155,-5.31226 3.640127,-9.60812 2.048703,-4.34343 2.524366,-5.08611 z"
         style="font-style:normal;font-variant:normal;font-weight:normal;font-stretch:normal;font-size:88.19444275px;font-family:Karumbi;-inkscape-font-specification:Karumbi;stroke-width:0.26458332"
         id="path937"
         inkscape:connector-curvature="0" />
      <path
         d="m 52.421407,189.17547 q -1.184447,-0.49606 -1.266958,-1.23986 -0.206476,-0.73004 0.110412,-1.26715 -0.192724,-0.60608 -0.55067,-1.5703 -0.357945,-0.96422 -0.715891,-1.92843 -1.927345,-5.49603 -4.006259,-10.66152 -2.078913,-5.16549 -3.648313,-9.6973 -0.784849,-1.41882 -1.170298,-2.63097 -0.63338,-1.18465 -1.308115,-2.17647 -0.688486,-1.11579 -1.197901,-2.31419 -0.523166,-1.32236 0.399798,-2.0522 0.854104,-0.78495 2.093659,-0.35775 1.831579,1.80467 3.084388,5.17944 0.234079,0.41325 0.413052,0.89536 0.234079,0.41325 0.495663,1.07443 l 0.660883,1.43258 q 4.956627,10.74433 12.062913,15.97957 2.451406,1.73591 5.123338,2.63167 1.694061,0.56501 1.253008,2.24532 -0.385946,1.61145 -2.259079,1.12905 -5.729512,-1.87423 -10.742139,-7.46722 0.509414,1.1984 1.252809,3.37477 0.275335,0.78515 0.770998,1.85958 0.495662,1.07443 0.991325,2.14886 1.115191,2.69984 0.536421,4.26993 -0.840452,1.47364 -2.383044,1.1428 z"
         style="font-style:normal;font-variant:normal;font-weight:normal;font-stretch:normal;font-size:88.19444275px;font-family:Karumbi;-inkscape-font-specification:Karumbi;stroke-width:0.26458332"
         id="path939"
         inkscape:connector-curvature="0" />
      <path
         d="m 59.388962,152.73096 q -0.359774,-1.73803 1.323646,-2.16706 0.579344,-0.11992 1.224,0.27025 0.659294,0.2663 0.899144,1.42499 0.185236,1.08944 0.55571,3.26831 0.439724,2.12426 1.057925,4.33241 1.629391,5.34191 3.934951,6.55633 3.950123,-1.54269 2.613491,-9.36186 -0.991495,-5.95729 -1.019653,-7.84452 -0.01352,-2.0111 0.697567,-3.2458 0.721785,-0.79385 2.069649,-0.50897 1.00161,0.55795 2.111327,3.38936 1.124355,2.70754 1.815746,4.29637 0.691391,1.58883 1.31747,2.66757 0.69533,1.02413 1.423875,1.23582 0.743183,0.0878 1.508882,-1.07762 0.711086,-1.2347 1.298308,-2.48404 0.711087,-1.2347 1.352922,-2.41478 1.787004,-3.43104 2.304975,-4.62576 0.532609,-1.31859 1.057341,-1.50776 0.470118,-0.25843 1.14405,-0.11599 1.263975,0.46336 1.321409,2.10287 -2.396742,5.93364 -3.833552,8.5269 -3.431567,6.18814 -6.578837,5.18823 -2.487975,-0.7336 -4.490076,-3.98445 0.709434,8.8754 -2.53466,11.88305 -2.828588,2.67997 -6.091844,0.53601 -1.577014,-1.00273 -2.323018,-2.66081 -0.800617,-1.72733 -1.044406,-2.32132 -0.298401,-0.66323 -0.556828,-1.13335 -0.189176,-0.52473 -0.418326,-1.24258 -1.574779,-5.27265 -2.141188,-8.9818 z"
         style="font-style:normal;font-variant:normal;font-weight:normal;font-stretch:normal;font-size:88.19444275px;font-family:Karumbi;-inkscape-font-specification:Karumbi;stroke-width:0.26458332"
         id="path941"
         inkscape:connector-curvature="0" />
      <path
         d="m 89.844421,131.34651 q 0.362689,-1.65723 1.755402,-1.58711 1.477677,0.0465 1.733391,1.62315 0.0025,4.94282 0.34477,9.79106 0.403634,4.73962 0.406089,9.68244 -0.230431,1.80352 -1.793074,1.78069 -1.562642,-0.0228 -1.634401,-1.92533 -0.04811,-1.81754 -0.09622,-3.63508 0.01321,-1.92615 -0.03491,-3.74369 l -0.02365,-0.085 q -0.100626,-2.99303 -0.456148,-5.91512 -0.294203,-3.03069 -0.201252,-5.98605 z m 1.036684,-13.37966 q 1.586289,0.10779 1.940993,1.38227 0.354703,1.27448 -1.080083,2.03998 l -0.33986,0.0946 q -0.958264,0.17515 -1.524972,-0.2164 -0.481742,-0.41521 -0.670917,-1.09493 -0.317032,-1.46805 1.334978,-2.11092 z"
         style="font-style:normal;font-variant:normal;font-weight:normal;font-stretch:normal;font-size:88.19444275px;font-family:Karumbi;-inkscape-font-specification:Karumbi;stroke-width:0.26458332"
         id="path943"
         inkscape:connector-curvature="0" />
      <path
         d="m 117.57298,130.3941 q 1.02319,0.27047 2.34045,2.53437 1.60431,-1.58284 4.47188,-4.83867 2.8901,-3.34111 4.06808,-5.03664 1.17799,-1.69554 2.56669,-3.15292 1.11824,-0.4342 1.92582,-0.0383 0.80758,0.39592 0.91836,1.70234 -0.74379,2.81377 -2.33045,4.67495 -1.58667,1.86117 -2.62942,3.04511 -1.04275,1.18394 -2.04531,2.56096 -1.8297,2.43549 -3.67897,6.3254 -1.74146,3.82718 -2.19224,5.53249 -0.42824,1.62005 -0.14693,2.97155 0.28132,1.35149 1.58284,1.60431 1.40933,0.19009 2.32961,0.15969 0.92027,-0.0304 1.79547,0.10971 0.89774,0.0549 1.29664,0.61643 0.42144,0.47629 0.45673,1.03297 0.0882,1.39168 -1.56412,1.77591 -1.17607,-0.0372 -2.37469,0.0108 -1.11334,0.0706 -2.50013,-0.20476 -1.30153,-0.25282 -2.36002,-1.07996 -1.08102,-0.74188 -1.64067,-2.07572 -1.16438,-2.49716 -0.31279,-5.37366 0.56348,-2.13164 1.53563,-4.42893 -8.15191,8.06219 -13.86365,9.65397 -1.5671,0.40677 -2.38255,-0.9947 -1.1899,-3.78103 3.03107,-9.05093 2.56669,-3.15292 7.60311,-7.02135 0.6919,-0.54689 1.52691,-0.59984 0.85755,-0.13821 1.54457,-0.3215 0.68701,-0.18329 1.02808,-0.0931 z m -2.42741,7.11236 q 1.47397,-1.43485 1.75719,-1.8161 0.3685,-0.35871 0.58411,-0.48416 -0.148,-0.13035 -0.23326,-0.15289 -0.0853,-0.0225 -0.23326,-0.15288 -0.10292,-0.30087 -0.52435,-0.77717 -4.38279,1.39572 -8.3352,7.37517 -1.07018,1.63281 -1.73168,3.09998 2.407,-0.82332 8.71645,-7.09195 z"
         style="font-style:normal;font-variant:normal;font-weight:normal;font-stretch:normal;font-size:88.19444275px;font-family:Karumbi;-inkscape-font-specification:Karumbi;stroke-width:0.26458332"
         id="path945"
         inkscape:connector-curvature="0" />
      <path
         d="m 176.48774,145.56834 q 1.46524,0.69435 1.40115,1.9274 -0.0733,1.40921 -1.67234,1.59104 -2.56335,0.0434 -4.41751,0.0353 -1.84959,-0.0961 -3.62941,0.16461 -3.82387,0.50776 -7.54942,2.52195 -0.009,0.17615 -0.1018,0.25965 2.47179,1.71812 6.37567,3.0691 3.90389,1.35099 6.07374,2.08196 2.17442,0.6429 3.55616,1.2446 1.38174,0.6017 2.49926,1.18966 1.02944,0.58339 1.95707,1.42643 2.2819,1.97318 1.73166,4.06411 -1.49857,5.04429 -9.41512,6.13415 -4.62571,0.64271 -12.25623,-0.37209 -0.52388,-0.11554 -1.49271,-0.1659 -0.96883,-0.0504 -2.01658,-0.28144 -2.71203,-0.49422 -3.19013,-1.49051 -0.44605,-1.61283 0.19794,-2.10924 0.73665,-0.57991 1.35318,-0.54786 0.61653,0.032 1.12667,0.41181 2.20189,0.11445 5.44237,0.63613 3.24507,0.43361 6.49928,0.69106 7.93138,0.32393 10.06589,-3.36261 -0.96535,-1.81644 -9.45027,-5.08349 -9.61616,-3.59078 -12.07879,-5.48505 -0.91848,-1.01918 -0.70113,-1.80271 0.21735,-0.78352 0.3329,-1.3074 0.23566,-1.13582 0.61543,-1.64597 4.00241,-3.9427 13.97325,-3.77771 2.55877,0.0447 4.76982,-0.017 z"
         style="font-style:normal;font-variant:normal;font-weight:normal;font-stretch:normal;font-size:88.19444275px;font-family:Karumbi;-inkscape-font-specification:Karumbi;stroke-width:0.26458332"
         id="path947"
         inkscape:connector-curvature="0" />
      <path
         d="m 189.79857,141.34815 q 1.19956,0.006 2.1388,1.61155 0.95926,1.48286 0.67038,3.64726 -0.21731,2.11286 -1.29638,4.08554 -1.517,2.72282 -5.70494,6.71712 -0.72055,7.14878 2.3972,7.40319 2.97461,0.35748 8.51081,-4.93388 4.02478,-3.7681 6.87002,-7.66489 1.18511,-1.07087 2.36761,-0.18352 1.13095,0.81579 0.3782,2.33609 -6.83555,8.61823 -12.99321,12.29213 -3.90758,2.27078 -6.36121,1.42939 -2.38205,-0.89292 -3.58196,-3.6154 -1.1999,-2.72248 -1.2147,-6.51584 -0.0148,-3.79336 0.88371,-7.37497 0.8985,-3.58162 2.71326,-6.19283 1.76321,-2.68277 4.22241,-3.04094 z m -0.77244,4.36031 q -1.08202,1.21401 -2.31537,5.6889 2.24415,-2.92045 2.31537,-5.6889 z"
         style="font-style:normal;font-variant:normal;font-weight:normal;font-stretch:normal;font-size:88.19444275px;font-family:Karumbi;-inkscape-font-specification:Karumbi;stroke-width:0.26458332"
         id="path949"
         inkscape:connector-curvature="0" />
      <path
         d="m 197.4885,139.76219 q -0.57179,1.54521 -1.36197,3.6942 -0.74656,1.63659 -2.22026,1.11642 -1.4737,-0.52016 -1.09655,-2.09712 0.48042,-1.71997 2.01715,-5.50555 -2.31599,-2.21613 -4.5566,-5.13931 -2.18897,-2.99468 -3.95281,-4.92093 -0.38927,-0.0635 -1.02093,-0.84593 -0.63165,-0.78242 -0.95742,-1.2352 -0.27413,-0.52428 -0.10737,-1.05656 0.0953,-0.5839 0.52816,-1.0328 1.06044,-0.86604 2.276,0.0116 l 0.0516,-0.0715 0.18276,0.34952 q 2.26436,2.28764 4.2507,4.80967 2.03798,2.45052 4.12758,4.82954 l 0.70316,0.83406 2.39454,-5.12428 q 0.44478,-0.76666 1.11207,-0.93754 0.66729,-0.17088 1.21944,0.11901 0.55215,0.2899 0.79454,1.00882 0.29401,0.64741 -0.31753,1.94635 -1.96964,4.23448 -2.61293,5.72806 3.79381,3.93586 7.28973,7.98299 3.47604,3.92399 6.15778,8.7974 0.52452,1.6841 -0.7703,2.27213 -1.29483,0.58802 -2.30388,-0.57568 -2.40761,-4.34913 -5.43475,-7.84022 -3.04702,-3.61422 -6.39194,-7.11719 z"
         style="font-style:normal;font-variant:normal;font-weight:normal;font-stretch:normal;font-size:88.19444275px;font-family:Karumbi;-inkscape-font-specification:Karumbi;stroke-width:0.26458332"
         id="path951"
         inkscape:connector-curvature="0" />
      <path
         d="m 207.49024,124.23541 q -0.31017,1.61815 -0.73657,3.86776 -0.46754,1.737 -2.00667,1.46601 -1.53914,-0.27099 -1.42618,-1.88848 0.19132,-1.77553 1.08526,-5.76213 -2.6486,-1.80554 -5.339,-4.3209 -2.65122,-2.59438 -4.70755,-4.20467 -0.39441,0.001 -1.14603,-0.66672 -0.75161,-0.66802 -1.14734,-1.06112 -0.35654,-0.47212 -0.27949,-1.02457 -0.002,-0.59162 0.35131,-1.10554 0.90375,-1.02849 2.24699,-0.36243 l 0.0392,-0.079 0.2377,0.31474 q 2.60942,1.88456 4.98311,4.04599 2.41287,2.08242 4.86492,4.08583 l 0.83063,0.7072 1.52016,-5.44804 q 0.31278,-0.82932 0.94293,-1.1075 0.63015,-0.27819 1.22242,-0.0829 0.59228,0.19524 0.94948,0.86457 0.39638,0.59031 0.007,1.97208 -1.24721,4.50052 -1.63639,6.07949 4.38887,3.25912 8.50218,6.67693 4.07347,3.29961 7.51941,7.66623 0.79406,1.57505 -0.38656,2.3678 -1.18063,0.79276 -2.36715,-0.18935 -3.0894,-3.89451 -6.64895,-6.84085 -3.59939,-3.06453 -7.47434,-5.97038 z"
         style="font-style:normal;font-variant:normal;font-weight:normal;font-stretch:normal;font-size:88.19444275px;font-family:Karumbi;-inkscape-font-specification:Karumbi;stroke-width:0.26458332"
         id="path953"
         inkscape:connector-curvature="0" />
      <path
         d="m 212.53137,106.61586 q -1.10591,-1.28643 -0.21231,-2.35696 0.92581,-1.15264 2.33927,-0.40873 3.95053,2.97066 8.02989,5.6129 4.02945,2.52793 7.97999,5.49858 1.30233,1.26874 0.34432,2.50348 -0.95802,1.23474 -2.52117,0.1479 -1.48106,-1.05463 -2.96211,-2.10926 -1.53095,-1.16893 -3.012,-2.22356 l -0.0821,-0.0322 q -2.45178,-1.71961 -5.00019,-3.19291 -2.5983,-1.58761 -4.90358,-3.43923 z m -10.06618,-8.874791 q 1.04012,-1.202535 2.27168,-0.719453 1.23156,0.483082 0.98027,2.089776 l -0.12882,0.328416 q -0.43636,0.870942 -1.09002,1.088222 -0.62144,0.13519 -1.27827,-0.12246 -1.36357,-0.629594 -0.88366,-2.336085 z"
         style="font-style:normal;font-variant:normal;font-weight:normal;font-stretch:normal;font-size:88.19444275px;font-family:Karumbi;-inkscape-font-specification:Karumbi;stroke-width:0.26458332"
         id="path955"
         inkscape:connector-curvature="0" />
      <path
         d="m 233.13995,105.3849 q -2.94967,0.29812 -6.60955,-1.00384 -3.71848,-1.41206 -5.52266,-2.14739 -1.80419,-0.73533 -3.06235,-0.84286 -0.65355,0.63037 -1.60716,0.43141 -0.97936,-0.11462 -1.22082,-0.83385 -0.2157,-0.80357 -0.18994,-0.88792 -0.26271,-1.555648 1.39596,-2.155753 3.16988,-0.415305 9.74466,2.514413 1.63549,0.68382 2.98508,1.09591 -4.66112,-5.572894 -7.86963,-11.071095 -2.21949,-3.90521 -1.51249,-6.824617 0.3535,-1.459703 0.5383,-2.970918 0.1262,-1.621321 1.16158,-2.596172 4.58195,-4.133781 11.14513,-0.562101 2.85631,1.517659 5.06614,3.944492 3.81506,4.115766 3.59291,6.353291 -0.0631,0.810661 -0.1262,1.621321 0.0212,0.836416 -0.49645,1.323842 -0.49193,0.403076 -1.13389,0.391484 -1.56273,-0.0161 -1.68957,-1.714687 -0.12685,-1.698588 -1.17446,-3.401685 -1.1062,-1.813203 -2.70434,-3.223329 -1.65673,-1.520232 -3.49375,-2.450016 -1.92138,-0.955539 -3.56845,-0.997395 -3.68307,-0.01803 -3.63993,4.974707 -0.0393,2.846647 1.24978,5.268972 1.28907,2.422325 3.10291,4.63603 1.72949,2.187948 3.65344,4.343059 1.8396,2.129357 3.07007,4.441577 0.34706,1.5814 -1.08432,2.34312 z"
         style="font-style:normal;font-variant:normal;font-weight:normal;font-stretch:normal;font-size:88.19444275px;font-family:Karumbi;-inkscape-font-specification:Karumbi;stroke-width:0.26458332"
         id="path957"
         inkscape:connector-curvature="0" />
      <path
         d="m 237.81544,63.272851 q -1.92267,-2.254985 -4.48658,-4.477191 -2.54404,-2.308134 -3.17186,-2.724861 -1.09023,-1.157295 -0.29651,-2.24107 0.72766,-1.189571 2.16855,-0.765887 9.61591,5.391623 14.46013,8.322121 0.45,-1.163247 1.71259,-1.142877 1.54024,-0.006 1.71109,2.387104 0.0725,0.469373 0.14503,0.938746 8.43925,5.391121 15.28511,11.409556 1.04404,0.965571 2.47798,2.202338 1.53973,1.170708 2.84801,2.559461 3.18477,3.452016 3.21009,6.082987 -5.1e-4,1.176661 -1.07833,1.923182 -4.46277,1.683761 -9.90152,-2.198896 -10.96342,-7.785183 -14.10049,-14.575457 -1.08973,-2.333956 -1.7826,-5.209799 l -4.99619,-3.056161 q 0.48228,0.65464 1.0634,2.056305 0.60099,1.315736 1.0038,2.314087 0.48874,1.018218 0.48824,2.194879 0.0854,1.196528 -0.27866,2.379644 -1.09224,3.549347 -3.61741,3.508607 -0.5553,0.05265 -1.07087,-0.06656 -0.60149,-0.139077 -1.05099,-0.152489 -0.51557,-0.119209 -0.6015,-0.139077 -3.34471,-0.411275 -7.88394,-5.443768 -4.40712,-4.820901 -4.47167,-8.456678 -0.0129,-0.727155 0.36408,-1.183116 0.31093,-0.561756 0.72766,-1.189571 0.3308,-0.647683 1.01176,-0.852317 0.68096,-0.204633 1.24272,0.106298 0.58162,0.225004 0.87218,0.925836 0.31043,0.614904 -0.2255,1.758284 -0.53594,1.14338 0.46141,3.093889 0.97748,2.036437 2.78145,3.630326 4.13642,4.034142 7.32915,4.319754 2.47999,-2.504303 -2.34981,-8.237629 z m 26.32951,15.321047 q -1.04404,-0.965571 -4.0639,-3.564768 -3,-2.685125 -8.7164,-6.541459 0.6139,2.042892 1.44635,3.140583 0.83245,1.09769 1.96887,2.446708 1.24222,1.282958 2.70248,2.797375 1.56606,1.448358 3.30397,2.936452 1.65199,1.468225 3.38345,2.592741 3.81308,2.692082 5.84256,2.527687 -1.04354,-2.142232 -5.86738,-6.335319 z"
         style="font-style:normal;font-variant:normal;font-weight:normal;font-stretch:normal;font-size:88.19444275px;font-family:Karumbi;-inkscape-font-specification:Karumbi;stroke-width:0.26458332"
         id="path959"
         inkscape:connector-curvature="0" />
      <path
         d="m 233.46397,34.722852 q 1.26913,-1.016818 2.07027,-0.506465 1.51561,1.004336 0.89066,2.412104 -1.02071,1.60227 -0.72031,3.813118 0.47178,3.679289 1.41636,6.281086 1.35099,-1.450126 2.3014,-3.155429 0.96679,-1.791965 2.21474,-3.1718 2.59412,-3.279641 6.05098,-3.524175 1.0072,0.369771 1.44531,0.901303 1.89592,4.217575 2.01236,10.253102 0.14917,5.862204 -1.68812,10.361863 -0.9716,1.342285 -2.20604,0.750079 -1.14778,-0.575836 -1.04281,-2.081827 2.001,-5.366277 1.17685,-12.881808 -0.21374,-2.194476 -0.85117,-3.571447 -1.31824,1.276802 -2.35532,2.965735 -1.03707,1.688932 -2.14444,3.274832 -1.17766,1.482868 -2.54982,2.569976 -1.3558,1.000447 -3.4145,0.97057 -1.22963,-0.142527 -1.75922,-1.140109 -3.73597,-9.681156 -0.84718,-14.520708 z"
         style="font-style:normal;font-variant:normal;font-weight:normal;font-stretch:normal;font-size:88.19444275px;font-family:Karumbi;-inkscape-font-specification:Karumbi;stroke-width:0.26458332"
         id="path961"
         inkscape:connector-curvature="0" />
    </g>
  </g>
  <g
     inkscape:groupmode="layer"
     id="layer4"
     inkscape:label="Edges"
     style="display:inline"
     sodipodi:insensitive="true">
    <rect
       style="opacity:1;fill:none;fill-opacity:1;stroke:#000000;stroke-width:2.98135304;stroke-miterlimit:4;stroke-dasharray:none;stroke-opacity:1"
       id="rect1024"
       width="267.952"
       height="267.952"
       x="1.4906765"
       y="1.4906768" />
  </g>
</svg>
